<svg width="74" height="88" viewBox="0 0 74 88" fill="none" xmlns="http://www.w3.org/2000/svg">
<path d="M13.0469 30H20.0781V28.2812H15.0781V18.6875H13.0469V30ZM21.2188 27.6094C21.2188 29.2891 22.4453 30.1719 24.0625 30.1719C25.3984 30.1719 26.1875 29.5469 26.5625 28.8281H26.625V30H28.5312V24.3281C28.5312 22.0703 26.6719 21.4062 25.0625 21.4062C22.9375 21.4062 21.6406 22.4922 21.5 23.9375H23.4219C23.5781 23.3281 24.125 22.9219 25.0156 22.9219C26.0078 22.9219 26.5469 23.4062 26.5469 24.25L26.5547 24.9297C26.1797 24.9453 24.9688 25 24.375 25.0469C22.8047 25.1484 21.2188 25.7031 21.2188 27.6094ZM23.1406 27.5938C23.1406 26.8516 23.7422 26.4531 24.6875 26.375C25.0859 26.3438 26.1953 26.2734 26.5547 26.2578L26.5625 26.9531C26.5625 27.9062 25.7891 28.7031 24.5781 28.7031C23.7422 28.7031 23.1406 28.3281 23.1406 27.5938ZM30.5 30H32.4531V28.6562H32.5781C32.8906 29.2812 33.5469 30.1484 35.0156 30.1562C37.0078 30.1484 38.5078 28.5547 38.5156 25.7656C38.5078 22.9375 36.9609 21.4062 35 21.4062C33.5 21.4062 32.8828 22.3047 32.5781 22.9062H32.5V18.6875H30.5V30ZM32.4531 25.75C32.4531 24.1016 33.1641 23.0391 34.4531 23.0312C35.7969 23.0391 36.4766 24.1719 36.4844 25.75C36.4766 27.3516 35.7812 28.5156 34.4531 28.5156C33.1797 28.5156 32.4531 27.4062 32.4531 25.75ZM43.8438 30.1719C45.8125 30.1719 47.1719 29.2031 47.5312 27.7344H45.5781C45.3203 28.2422 44.7344 28.6172 43.8594 28.6094C42.5703 28.6172 41.7188 27.7578 41.6875 26.3125H47.6094V25.6875C47.6094 22.7109 45.8125 21.4062 43.7344 21.4062C41.3125 21.4062 39.7188 23.1875 39.7188 25.8125C39.7188 28.4688 41.2891 30.1719 43.8438 30.1719ZM41.6953 24.9531C41.7656 23.875 42.5703 22.9531 43.7656 22.9531C44.9141 22.9531 45.6953 23.7969 45.7031 24.9531H41.6953ZM51.1562 18.6875H49.1562V30H51.1562V18.6875Z" fill="#333333"/>
<path d="M61.7969 18.0469L61.6719 15.7969L63.5625 17.0312L64.2188 15.8906L62.2188 14.875L64.2188 13.8438L63.5625 12.7031L61.6719 13.9375L61.7969 11.6875H60.4688L60.5938 13.9375L58.7031 12.7031L58.0312 13.8438L60.0469 14.875L58.0312 15.8906L58.7031 17.0312L60.5938 15.7969L60.4688 18.0469H61.7969Z" fill="#F03F40"/>
<path d="M12.7854 65H18.0601V63.7106H14.3092V56.5135H12.7854V65ZM18.9158 63.2066C18.9158 64.4667 19.8359 65.1289 21.0491 65.1289C22.0513 65.1289 22.6433 64.6601 22.9246 64.1209H22.9715V65H24.4015V60.745C24.4015 59.0512 23.0067 58.5531 21.7993 58.5531C20.2052 58.5531 19.2323 59.3677 19.1268 60.452H20.5685C20.6858 59.9948 21.096 59.6901 21.7642 59.6901C22.5085 59.6901 22.9129 60.0535 22.9129 60.6864L22.9187 61.1963C22.6374 61.208 21.729 61.2491 21.2836 61.2842C20.1055 61.3604 18.9158 61.7765 18.9158 63.2066ZM20.3576 63.1949C20.3576 62.6381 20.8088 62.3392 21.518 62.2806C21.8169 62.2571 22.6491 62.2044 22.9187 62.1927L22.9246 62.7143C22.9246 63.4293 22.3444 64.0271 21.436 64.0271C20.8088 64.0271 20.3576 63.7458 20.3576 63.1949ZM25.8785 65H27.3437V63.9919H27.4375C27.6719 64.4608 28.1642 65.1114 29.266 65.1172C30.7605 65.1114 31.8858 63.9157 31.8917 61.8234C31.8858 59.7018 30.7254 58.5531 29.2543 58.5531C28.129 58.5531 27.666 59.2271 27.4375 59.6784H27.3788V56.5135H25.8785V65ZM27.3437 61.8117C27.3437 60.5751 27.877 59.778 28.8441 59.7721C29.8521 59.778 30.362 60.6278 30.3679 61.8117C30.362 63.0132 29.8404 63.8864 28.8441 63.8864C27.8887 63.8864 27.3437 63.0542 27.3437 61.8117ZM35.8888 65.1289C37.3657 65.1289 38.3855 64.4022 38.6551 63.3004H37.1899C36.9965 63.6813 36.5569 63.9626 35.9005 63.9568C34.9335 63.9626 34.2946 63.3179 34.2712 62.2337H38.7137V61.7648C38.7137 59.5318 37.3657 58.5531 35.8067 58.5531C33.9899 58.5531 32.7943 59.8893 32.7943 61.8586C32.7943 63.8513 33.9723 65.1289 35.8888 65.1289ZM34.2771 61.2139C34.3298 60.4051 34.9335 59.7135 35.8302 59.7135C36.6917 59.7135 37.2778 60.3465 37.2837 61.2139H34.2771ZM41.3745 56.5135H39.8742V65H41.3745V56.5135Z" fill="#6B6B6B"/>
<path d="M51.7969 58.0469L51.6719 55.7969L53.5625 57.0312L54.2188 55.8906L52.2188 54.875L54.2188 53.8438L53.5625 52.7031L51.6719 53.9375L51.7969 51.6875H50.4688L50.5938 53.9375L48.7031 52.7031L48.0312 53.8438L50.0469 54.875L48.0312 55.8906L48.7031 57.0312L50.5938 55.7969L50.4688 58.0469H51.7969Z" fill="#F03F40"/>
<rect x="0.5" y="0.5" width="73" height="87" rx="4.5" stroke="#9747FF" stroke-dasharray="10 5"/>
</svg>
