<svg width="144" height="78" viewBox="0 0 144 78" fill="none" xmlns="http://www.w3.org/2000/svg">
<path d="M13.8169 22.1787C13.8169 21.0769 14.5202 20.4556 15.4696 20.4556C16.3839 20.4556 16.9348 21.0241 16.9348 22.0264V26H17.9429V21.956C17.9429 20.3208 17.0755 19.5531 15.7744 19.5531C14.7663 19.5531 14.1978 19.9751 13.8989 20.6315H13.8169V17.5135H12.8088V26H13.8169V22.1787ZM22.233 26.1289C23.5459 26.1348 24.4894 25.4784 24.7884 24.5113H23.71C23.4755 24.904 22.9949 25.2381 22.233 25.2381C21.1019 25.2381 20.3165 24.4996 20.2638 23.1516H24.8821V22.7297C24.888 20.3736 23.4755 19.5531 22.1393 19.5531C20.4103 19.5531 19.2557 20.9128 19.2557 22.8703C19.2557 24.822 20.3927 26.1348 22.233 26.1289ZM20.2696 22.2959C20.34 21.3113 21.0374 20.4439 22.1393 20.4439C23.1883 20.4439 23.8565 21.2351 23.8623 22.2959H20.2696ZM27.203 17.5135H26.195V26H27.203V17.5135ZM28.8089 28.3912H29.817V25.0271H29.899C30.1159 25.3788 30.5378 26.1348 31.751 26.1289C33.3393 26.1348 34.447 24.8571 34.447 22.8351C34.447 20.819 33.3393 19.5531 31.7393 19.5531C30.5027 19.5531 30.1159 20.3033 29.899 20.6432H29.7818V19.6351H28.8089V28.3912ZM29.7935 22.8117C29.7994 21.3992 30.4206 20.4556 31.6104 20.4556C32.8353 20.4556 33.439 21.4813 33.439 22.8117C33.439 24.1656 32.8177 25.2264 31.6104 25.2264C30.4382 25.2264 29.7994 24.2417 29.7935 22.8117ZM39.9562 24.8864C40.8705 24.8806 41.228 24.2359 41.3628 23.9721H41.439C41.4859 24.5172 42.0427 24.9333 42.7811 24.9333C43.9709 24.9333 44.9086 23.8725 44.9028 22.0498C44.9145 19.5238 43.0273 17.619 40.2258 17.619C37.4947 17.619 35.5489 19.641 35.5606 22.4132C35.5547 25.3846 37.313 27.2191 40.1789 27.2191C40.9525 27.2191 41.6383 27.1136 42.2537 26.9495V26.1524C41.5386 26.3458 40.9994 26.3985 40.1789 26.4103C37.7056 26.4337 36.4045 24.7985 36.4045 22.4132C36.4104 20.2329 37.9049 18.4395 40.2258 18.4278C42.4705 18.4337 44.0705 19.8754 44.0588 22.085C44.0529 23.304 43.5665 24.1538 42.8397 24.148C42.4588 24.1538 42.2712 23.9253 42.2537 23.4681V20.0454H41.3628V20.7604H41.3042C41.1577 20.4967 40.8119 19.9575 39.9679 19.9516C38.7958 19.9575 37.9284 20.9011 37.9284 22.4132C37.9284 23.937 38.7782 24.8806 39.9562 24.8864ZM38.8426 22.4014C38.8368 21.5047 39.2881 20.8132 40.1086 20.8073C40.9525 20.8132 41.3687 21.452 41.3745 22.4014C41.3687 23.3743 40.9467 24.0249 40.1086 24.0308C39.2939 24.0249 38.8368 23.3157 38.8426 22.4014ZM46.3211 26H47.3291V23.6264L48.0031 22.9992L50.3651 26H51.6427L48.7592 22.3604L51.4435 19.6351H50.201L47.4464 22.4483H47.3291V17.5135H46.3211V26ZM52.2171 24.1949C52.2171 25.4374 53.1783 26.1465 54.3856 26.1524C55.4933 26.1465 56.0735 25.5604 56.2845 25.1326H56.3314V26H57.3277V21.8036C57.3336 19.7992 55.7688 19.5531 54.9365 19.5531C53.5299 19.5531 52.5336 20.2622 52.4046 21.2879H53.4596C53.6002 20.8014 54.0867 20.4322 54.8896 20.4322C55.8508 20.4322 56.3314 20.9011 56.3314 21.7099V22.2256C56.0442 22.2315 55.0186 22.2901 54.6083 22.3194C53.5065 22.4014 52.2171 22.7355 52.2171 24.1949ZM53.2251 24.2417C53.231 23.5443 53.8112 23.222 54.7255 23.1634C55.0303 23.1458 56.0325 23.0696 56.3314 23.052V23.6908C56.3314 24.4938 55.6984 25.2557 54.5614 25.2498C53.7878 25.2557 53.231 24.9157 53.2251 24.2417ZM58.9453 26H59.9534V21.9912C59.9534 21.1355 60.6332 20.5025 61.5475 20.5025C61.8113 20.5025 62.0809 20.5553 62.1571 20.5729V19.5531C62.0399 19.5414 61.782 19.5355 61.6296 19.5296C60.8794 19.5355 60.2171 19.9633 59.9886 20.608H59.9182V19.6351H58.9453V26ZM64.1498 17.5135H63.1417V26H64.1498V17.5135ZM66.4003 28.3912C67.3029 28.3854 67.9241 27.9165 68.2992 26.9143L70.9952 19.6351H69.8934L68.1586 24.6872H68.0882L66.3534 19.6351H65.2516L67.6076 26.0469L67.4201 26.5275C67.086 27.4593 66.7402 27.4828 66.33 27.4887C66.1717 27.4828 65.9432 27.4769 65.8377 27.4652V28.3678C65.9666 28.3795 66.1835 28.3854 66.4003 28.3912ZM74.4766 26.1289C75.889 26.1348 76.8267 25.2615 76.985 24.1245H75.9769C75.8011 24.822 75.2267 25.2264 74.4766 25.2264C73.322 25.2264 72.5835 24.2828 72.5776 22.8117C72.5835 21.3817 73.3396 20.4439 74.4766 20.4439C75.3264 20.4439 75.8304 20.9773 75.9769 21.5575H76.985C76.8267 20.356 75.807 19.5531 74.4531 19.5531C72.7242 19.5531 71.5696 20.9128 71.5696 22.8469C71.5696 24.7575 72.6714 26.1348 74.4766 26.1289ZM80.8297 26.1289C82.5587 26.1348 83.7191 24.822 83.7132 22.8469C83.7191 20.86 82.5587 19.5531 80.8297 19.5531C79.0949 19.5531 77.9227 20.86 77.9227 22.8469C77.9227 24.822 79.0949 26.1348 80.8297 26.1289ZM78.9308 22.8469C78.9367 21.5809 79.5345 20.4439 80.8297 20.4439C82.1132 20.4439 82.7052 21.5809 82.7052 22.8469C82.7052 24.1187 82.1132 25.2381 80.8297 25.2381C79.5345 25.2381 78.9367 24.1187 78.9308 22.8469ZM85.0378 26H86.0458V21.9912C86.0458 21.1355 86.7257 20.5025 87.64 20.5025C87.9037 20.5025 88.1733 20.5553 88.2495 20.5729V19.5531C88.1323 19.5414 87.8744 19.5355 87.722 19.5296C86.9719 19.5355 86.3096 19.9633 86.081 20.608H86.0107V19.6351H85.0378V26ZM89.2341 28.3912H90.2422V25.0271H90.3243C90.5411 25.3788 90.9631 26.1348 92.1763 26.1289C93.7646 26.1348 94.8723 24.8571 94.8723 22.8351C94.8723 20.819 93.7646 19.5531 92.1646 19.5531C90.9279 19.5531 90.5411 20.3033 90.3243 20.6432H90.207V19.6351H89.2341V28.3912ZM90.2188 22.8117C90.2246 21.3992 90.8459 20.4556 92.0356 20.4556C93.2605 20.4556 93.8642 21.4813 93.8642 22.8117C93.8642 24.1656 93.243 25.2264 92.0356 25.2264C90.8635 25.2264 90.2246 24.2417 90.2188 22.8117ZM96.9001 26.0703C97.3163 26.0645 97.6562 25.7245 97.6503 25.3084C97.6562 24.8982 97.3163 24.5582 96.9001 24.5582C96.4899 24.5582 96.1382 24.8982 96.1499 25.3084C96.1382 25.7245 96.4899 26.0645 96.9001 26.0703ZM101.835 26.1289C103.247 26.1348 104.185 25.2615 104.343 24.1245H103.335C103.16 24.822 102.585 25.2264 101.835 25.2264C100.68 25.2264 99.9419 24.2828 99.936 22.8117C99.9419 21.3817 100.698 20.4439 101.835 20.4439C102.685 20.4439 103.189 20.9773 103.335 21.5575H104.343C104.185 20.356 103.165 19.5531 101.812 19.5531C100.083 19.5531 98.928 20.9128 98.928 22.8469C98.928 24.7575 100.03 26.1348 101.835 26.1289ZM108.188 26.1289C109.917 26.1348 111.078 24.822 111.072 22.8469C111.078 20.86 109.917 19.5531 108.188 19.5531C106.453 19.5531 105.281 20.86 105.281 22.8469C105.281 24.822 106.453 26.1348 108.188 26.1289ZM106.289 22.8469C106.295 21.5809 106.893 20.4439 108.188 20.4439C109.472 20.4439 110.064 21.5809 110.064 22.8469C110.064 24.1187 109.472 25.2381 108.188 25.2381C106.893 25.2381 106.295 24.1187 106.289 22.8469ZM112.396 26H113.404V22.0264C113.404 21.1003 114.072 20.4556 114.834 20.4556C115.567 20.4556 116.083 20.9362 116.077 21.6513V26H117.097V21.8622C117.102 21.0535 117.606 20.4556 118.491 20.4556C119.189 20.4556 119.775 20.819 119.781 21.7568V26H120.789V21.745C120.789 20.2447 119.974 19.5531 118.843 19.5531C117.929 19.5531 117.255 19.9751 116.932 20.6315H116.862C116.563 19.9516 115.995 19.5531 115.163 19.5531C114.33 19.5531 113.715 19.9516 113.451 20.6315H113.369V19.6351H112.396V26Z" fill="#5F0080"/>
<g clip-path="url(#clip0_42_833)">
<path fill-rule="evenodd" clip-rule="evenodd" d="M127 27L132 21.5L127 16L126 17.1L130 21.5L126 25.9L127 27Z" fill="#5F0080"/>
</g>
<path d="M13.8169 57.1787C13.8169 56.0769 14.5202 55.4556 15.4696 55.4556C16.3839 55.4556 16.9348 56.0241 16.9348 57.0264V61H17.9429V56.956C17.9429 55.3208 17.0755 54.5531 15.7744 54.5531C14.7663 54.5531 14.1978 54.9751 13.8989 55.6315H13.8169V52.5135H12.8088V61H13.8169V57.1787ZM22.233 61.1289C23.5459 61.1348 24.4894 60.4784 24.7884 59.5113H23.71C23.4755 59.904 22.9949 60.2381 22.233 60.2381C21.1019 60.2381 20.3165 59.4996 20.2638 58.1516H24.8821V57.7297C24.888 55.3736 23.4755 54.5531 22.1393 54.5531C20.4103 54.5531 19.2557 55.9128 19.2557 57.8703C19.2557 59.822 20.3927 61.1348 22.233 61.1289ZM20.2696 57.2959C20.34 56.3113 21.0374 55.4439 22.1393 55.4439C23.1883 55.4439 23.8565 56.2351 23.8623 57.2959H20.2696ZM27.203 52.5135H26.195V61H27.203V52.5135ZM28.8089 63.3912H29.817V60.0271H29.899C30.1159 60.3788 30.5378 61.1348 31.751 61.1289C33.3393 61.1348 34.447 59.8571 34.447 57.8351C34.447 55.819 33.3393 54.5531 31.7393 54.5531C30.5027 54.5531 30.1159 55.3033 29.899 55.6432H29.7818V54.6351H28.8089V63.3912ZM29.7935 57.8117C29.7994 56.3992 30.4206 55.4556 31.6104 55.4556C32.8353 55.4556 33.439 56.4813 33.439 57.8117C33.439 59.1656 32.8177 60.2264 31.6104 60.2264C30.4382 60.2264 29.7994 59.2417 29.7935 57.8117ZM39.9562 59.8864C40.8705 59.8806 41.228 59.2359 41.3628 58.9721H41.439C41.4859 59.5172 42.0427 59.9333 42.7811 59.9333C43.9709 59.9333 44.9086 58.8725 44.9028 57.0498C44.9145 54.5238 43.0273 52.619 40.2258 52.619C37.4947 52.619 35.5489 54.641 35.5606 57.4132C35.5547 60.3846 37.313 62.2191 40.1789 62.2191C40.9525 62.2191 41.6383 62.1136 42.2537 61.9495V61.1524C41.5386 61.3458 40.9994 61.3985 40.1789 61.4103C37.7056 61.4337 36.4045 59.7985 36.4045 57.4132C36.4104 55.2329 37.9049 53.4395 40.2258 53.4278C42.4705 53.4337 44.0705 54.8754 44.0588 57.085C44.0529 58.304 43.5665 59.1538 42.8397 59.148C42.4588 59.1538 42.2712 58.9253 42.2537 58.4681V55.0454H41.3628V55.7604H41.3042C41.1577 55.4967 40.8119 54.9575 39.9679 54.9516C38.7958 54.9575 37.9284 55.9011 37.9284 57.4132C37.9284 58.937 38.7782 59.8806 39.9562 59.8864ZM38.8426 57.4014C38.8368 56.5047 39.2881 55.8132 40.1086 55.8073C40.9525 55.8132 41.3687 56.452 41.3745 57.4014C41.3687 58.3743 40.9467 59.0249 40.1086 59.0308C39.2939 59.0249 38.8368 58.3157 38.8426 57.4014ZM46.3211 61H47.3291V58.6264L48.0031 57.9992L50.3651 61H51.6427L48.7592 57.3604L51.4435 54.6351H50.201L47.4464 57.4483H47.3291V52.5135H46.3211V61ZM52.2171 59.1949C52.2171 60.4374 53.1783 61.1465 54.3856 61.1524C55.4933 61.1465 56.0735 60.5604 56.2845 60.1326H56.3314V61H57.3277V56.8036C57.3336 54.7992 55.7688 54.5531 54.9365 54.5531C53.5299 54.5531 52.5336 55.2622 52.4046 56.2879H53.4596C53.6002 55.8014 54.0867 55.4322 54.8896 55.4322C55.8508 55.4322 56.3314 55.9011 56.3314 56.7099V57.2256C56.0442 57.2315 55.0186 57.2901 54.6083 57.3194C53.5065 57.4014 52.2171 57.7355 52.2171 59.1949ZM53.2251 59.2417C53.231 58.5443 53.8112 58.222 54.7255 58.1634C55.0303 58.1458 56.0325 58.0696 56.3314 58.052V58.6908C56.3314 59.4938 55.6984 60.2557 54.5614 60.2498C53.7878 60.2557 53.231 59.9157 53.2251 59.2417ZM58.9453 61H59.9534V56.9912C59.9534 56.1355 60.6332 55.5025 61.5475 55.5025C61.8113 55.5025 62.0809 55.5553 62.1571 55.5729V54.5531C62.0399 54.5414 61.782 54.5355 61.6296 54.5296C60.8794 54.5355 60.2171 54.9633 59.9886 55.608H59.9182V54.6351H58.9453V61ZM64.1498 52.5135H63.1417V61H64.1498V52.5135ZM66.4003 63.3912C67.3029 63.3854 67.9241 62.9165 68.2992 61.9143L70.9952 54.6351H69.8934L68.1586 59.6872H68.0882L66.3534 54.6351H65.2516L67.6076 61.0469L67.4201 61.5275C67.086 62.4593 66.7402 62.4828 66.33 62.4887C66.1717 62.4828 65.9432 62.4769 65.8377 62.4652V63.3678C65.9666 63.3795 66.1835 63.3854 66.4003 63.3912ZM74.4766 61.1289C75.889 61.1348 76.8267 60.2615 76.985 59.1245H75.9769C75.8011 59.822 75.2267 60.2264 74.4766 60.2264C73.322 60.2264 72.5835 59.2828 72.5776 57.8117C72.5835 56.3817 73.3396 55.4439 74.4766 55.4439C75.3264 55.4439 75.8304 55.9773 75.9769 56.5575H76.985C76.8267 55.356 75.807 54.5531 74.4531 54.5531C72.7242 54.5531 71.5696 55.9128 71.5696 57.8469C71.5696 59.7575 72.6714 61.1348 74.4766 61.1289ZM80.8297 61.1289C82.5587 61.1348 83.7191 59.822 83.7132 57.8469C83.7191 55.86 82.5587 54.5531 80.8297 54.5531C79.0949 54.5531 77.9227 55.86 77.9227 57.8469C77.9227 59.822 79.0949 61.1348 80.8297 61.1289ZM78.9308 57.8469C78.9367 56.5809 79.5345 55.4439 80.8297 55.4439C82.1132 55.4439 82.7052 56.5809 82.7052 57.8469C82.7052 59.1187 82.1132 60.2381 80.8297 60.2381C79.5345 60.2381 78.9367 59.1187 78.9308 57.8469ZM85.0378 61H86.0458V56.9912C86.0458 56.1355 86.7257 55.5025 87.64 55.5025C87.9037 55.5025 88.1733 55.5553 88.2495 55.5729V54.5531C88.1323 54.5414 87.8744 54.5355 87.722 54.5296C86.9719 54.5355 86.3096 54.9633 86.081 55.608H86.0107V54.6351H85.0378V61ZM89.2341 63.3912H90.2422V60.0271H90.3243C90.5411 60.3788 90.9631 61.1348 92.1763 61.1289C93.7646 61.1348 94.8723 59.8571 94.8723 57.8351C94.8723 55.819 93.7646 54.5531 92.1646 54.5531C90.9279 54.5531 90.5411 55.3033 90.3243 55.6432H90.207V54.6351H89.2341V63.3912ZM90.2188 57.8117C90.2246 56.3992 90.8459 55.4556 92.0356 55.4556C93.2605 55.4556 93.8642 56.4813 93.8642 57.8117C93.8642 59.1656 93.243 60.2264 92.0356 60.2264C90.8635 60.2264 90.2246 59.2417 90.2188 57.8117ZM96.9001 61.0703C97.3163 61.0645 97.6562 60.7245 97.6503 60.3084C97.6562 59.8982 97.3163 59.5582 96.9001 59.5582C96.4899 59.5582 96.1382 59.8982 96.1499 60.3084C96.1382 60.7245 96.4899 61.0645 96.9001 61.0703ZM101.835 61.1289C103.247 61.1348 104.185 60.2615 104.343 59.1245H103.335C103.16 59.822 102.585 60.2264 101.835 60.2264C100.68 60.2264 99.9419 59.2828 99.936 57.8117C99.9419 56.3817 100.698 55.4439 101.835 55.4439C102.685 55.4439 103.189 55.9773 103.335 56.5575H104.343C104.185 55.356 103.165 54.5531 101.812 54.5531C100.083 54.5531 98.928 55.9128 98.928 57.8469C98.928 59.7575 100.03 61.1348 101.835 61.1289ZM108.188 61.1289C109.917 61.1348 111.078 59.822 111.072 57.8469C111.078 55.86 109.917 54.5531 108.188 54.5531C106.453 54.5531 105.281 55.86 105.281 57.8469C105.281 59.822 106.453 61.1348 108.188 61.1289ZM106.289 57.8469C106.295 56.5809 106.893 55.4439 108.188 55.4439C109.472 55.4439 110.064 56.5809 110.064 57.8469C110.064 59.1187 109.472 60.2381 108.188 60.2381C106.893 60.2381 106.295 59.1187 106.289 57.8469ZM112.396 61H113.404V57.0264C113.404 56.1003 114.072 55.4556 114.834 55.4556C115.567 55.4556 116.083 55.9362 116.077 56.6513V61H117.097V56.8622C117.102 56.0535 117.606 55.4556 118.491 55.4556C119.189 55.4556 119.775 55.819 119.781 56.7568V61H120.789V56.745C120.789 55.2447 119.974 54.5531 118.843 54.5531C117.929 54.5531 117.255 54.9751 116.932 55.6315H116.862C116.563 54.9516 115.995 54.5531 115.163 54.5531C114.33 54.5531 113.715 54.9516 113.451 55.6315H113.369V54.6351H112.396V61Z" fill="#5F0080"/>
<g clip-path="url(#clip1_42_833)">
<path fill-rule="evenodd" clip-rule="evenodd" d="M127 62L132 56.5L127 51L126 52.1L130 56.5L126 60.9L127 62Z" fill="#5F0080"/>
</g>
<rect x="8.5" y="43.5" width="127" height="26" rx="3.5" stroke="#0066FF"/>
<rect x="0.5" y="0.5" width="143" height="77" rx="4.5" stroke="#9747FF" stroke-dasharray="10 5"/>
<defs>
<clipPath id="clip0_42_833">
<rect width="6" height="11" fill="white" transform="translate(126 16)"/>
</clipPath>
<clipPath id="clip1_42_833">
<rect width="6" height="11" fill="white" transform="translate(126 51)"/>
</clipPath>
</defs>
</svg>
