<svg width="35" height="34" viewBox="0 0 35 34" fill="none" xmlns="http://www.w3.org/2000/svg">
<path d="M14.4034 21.5V20.733L17.2841 17.5795C17.6222 17.2102 17.9006 16.8892 18.1193 16.6165C18.3381 16.3409 18.5 16.0824 18.6051 15.8409C18.7131 15.5966 18.767 15.3409 18.767 15.0739C18.767 14.767 18.6932 14.5014 18.5455 14.277C18.4006 14.0526 18.2017 13.8793 17.9489 13.7571C17.696 13.6349 17.4119 13.5739 17.0966 13.5739C16.7614 13.5739 16.4688 13.6435 16.2188 13.7827C15.9716 13.919 15.7798 14.1108 15.6435 14.358C15.5099 14.6051 15.4432 14.8949 15.4432 15.2273H14.4375C14.4375 14.7159 14.5554 14.267 14.7912 13.8807C15.027 13.4943 15.348 13.1932 15.7543 12.9773C16.1634 12.7614 16.6222 12.6534 17.1307 12.6534C17.642 12.6534 18.0952 12.7614 18.4901 12.9773C18.8849 13.1932 19.1946 13.4844 19.419 13.8509C19.6435 14.2173 19.7557 14.625 19.7557 15.0739C19.7557 15.3949 19.6974 15.7088 19.581 16.0156C19.4673 16.3196 19.2685 16.6591 18.9844 17.0341C18.7031 17.4062 18.3125 17.8608 17.8125 18.3977L15.8523 20.4943V20.5625H19.9091V21.5H14.4034Z" fill="#333333"/>
<rect x="1" y="0.5" width="33" height="33" stroke="#E1E1E1"/>
</svg>
