<svg width="35" height="34" viewBox="0 0 35 34" fill="none" xmlns="http://www.w3.org/2000/svg">
<path d="M17.3523 21.6193C16.7898 21.6193 16.2884 21.5227 15.848 21.3295C15.4105 21.1364 15.0625 20.8679 14.804 20.5241C14.5483 20.1776 14.4091 19.7756 14.3864 19.3182H15.4602C15.483 19.5994 15.5795 19.8423 15.75 20.0469C15.9205 20.2486 16.1435 20.4048 16.419 20.5156C16.6946 20.6264 17 20.6818 17.3352 20.6818C17.7102 20.6818 18.0426 20.6165 18.3324 20.4858C18.6222 20.3551 18.8494 20.1733 19.0142 19.9403C19.179 19.7074 19.2614 19.4375 19.2614 19.1307C19.2614 18.8097 19.1818 18.527 19.0227 18.2827C18.8636 18.0355 18.6307 17.8423 18.3239 17.7031C18.017 17.5639 17.642 17.4943 17.1989 17.4943H16.5V16.5568H17.1989C17.5455 16.5568 17.8494 16.4943 18.1108 16.3693C18.375 16.2443 18.581 16.0682 18.7287 15.8409C18.8793 15.6136 18.9545 15.3466 18.9545 15.0398C18.9545 14.7443 18.8892 14.4872 18.7585 14.2685C18.6278 14.0497 18.4432 13.8793 18.2045 13.7571C17.9688 13.6349 17.6903 13.5739 17.3693 13.5739C17.0682 13.5739 16.7841 13.6293 16.517 13.7401C16.2528 13.848 16.0369 14.0057 15.8693 14.2131C15.7017 14.4176 15.6108 14.6648 15.5966 14.9545H14.5739C14.5909 14.4972 14.7287 14.0966 14.9872 13.7528C15.2457 13.4062 15.5838 13.1364 16.0014 12.9432C16.4219 12.75 16.8835 12.6534 17.3864 12.6534C17.9261 12.6534 18.3892 12.7628 18.7756 12.9815C19.1619 13.1974 19.4588 13.483 19.6662 13.8381C19.8736 14.1932 19.9773 14.5767 19.9773 14.9886C19.9773 15.4801 19.848 15.8991 19.5895 16.2457C19.3338 16.5923 18.9858 16.8324 18.5455 16.9659V17.0341C19.0966 17.125 19.527 17.3594 19.8366 17.7372C20.1463 18.1122 20.3011 18.5767 20.3011 19.1307C20.3011 19.6051 20.1719 20.0312 19.9134 20.4091C19.6577 20.7841 19.3082 21.0795 18.8651 21.2955C18.4219 21.5114 17.9176 21.6193 17.3523 21.6193Z" fill="#333333"/>
<rect x="1" y="0.5" width="33" height="33" stroke="#E1E1E1"/>
</svg>
