<svg width="32" height="32" viewBox="0 0 32 32" fill="none" xmlns="http://www.w3.org/2000/svg">
<path d="M12.666 23C12.666 23.884 13.0172 24.7317 13.6422 25.3568C14.2673 25.9818 15.115 26.333 15.999 26.333C16.883 26.333 17.7307 25.9818 18.3558 25.3568C18.9809 24.7317 19.332 23.884 19.332 23" stroke="#333333" stroke-width="1.6"/>
<path fill-rule="evenodd" clip-rule="evenodd" d="M25.998 22.738H6L6.013 22.708C6.089 22.573 6.484 22.004 7.199 20.999L7.949 19.949V13.314C7.949 8.829 11.387 5.174 15.69 5.006L16 5C20.446 5 24.05 8.722 24.05 13.314V19.948L25.757 22.359C25.93 22.612 26.011 22.739 25.999 22.739L25.998 22.738Z" stroke="#333333" stroke-width="1.6" stroke-linecap="round" stroke-linejoin="round"/>
</svg>
