<svg width="46" height="128" viewBox="0 0 46 128" fill="none" xmlns="http://www.w3.org/2000/svg">
<g clip-path="url(#clip0_61_3889)">
<path d="M23.044 9C23.2254 8.99977 23.4008 9.06529 23.5376 9.18444C23.6744 9.30359 23.7633 9.46828 23.788 9.648L23.794 9.75V12.439L25.514 10.719C25.6412 10.5919 25.8098 10.5147 25.9891 10.5014C26.1685 10.4882 26.3466 10.5399 26.491 10.647L26.575 10.72C26.7019 10.8471 26.7789 11.0155 26.7921 11.1946C26.8053 11.3737 26.7538 11.5516 26.647 11.696L26.575 11.78L23.795 14.56L23.794 18.95L27.596 16.756L28.614 12.958C28.6625 12.7746 28.7787 12.6163 28.9392 12.5152C29.0997 12.414 29.2926 12.3774 29.479 12.4128C29.6654 12.4482 29.8314 12.5529 29.9437 12.7058C30.056 12.8588 30.1061 13.0486 30.084 13.237L30.064 13.346L29.434 15.696L31.763 14.35C31.9277 14.2543 32.1227 14.2249 32.3084 14.2677C32.494 14.3105 32.6564 14.4224 32.7626 14.5806C32.8687 14.7388 32.9107 14.9315 32.8799 15.1195C32.8492 15.3076 32.748 15.4768 32.597 15.593L32.513 15.65L30.185 16.994L32.533 17.624C32.7063 17.6707 32.8571 17.778 32.9581 17.9265C33.059 18.0749 33.1033 18.2547 33.083 18.433L33.063 18.543C33.0163 18.7165 32.9088 18.8675 32.7601 18.9684C32.6115 19.0693 32.4315 19.1136 32.253 19.093L32.145 19.073L28.347 18.055L24.544 20.249L28.346 22.445L32.145 21.427C32.3283 21.3767 32.5239 21.3979 32.6922 21.4863C32.8605 21.5747 32.9889 21.7237 33.0515 21.9032C33.1142 22.0827 33.1063 22.2793 33.0295 22.4532C32.9528 22.6271 32.8128 22.7653 32.638 22.84L32.533 22.876L30.183 23.506L32.513 24.85C32.6783 24.9448 32.8013 25.0989 32.8571 25.281C32.9129 25.4632 32.8973 25.6598 32.8134 25.8309C32.7295 26.0019 32.5837 26.1347 32.4055 26.2021C32.2273 26.2696 32.0301 26.2667 31.854 26.194L31.763 26.15L29.435 24.806L30.063 27.154C30.1096 27.3275 30.0923 27.512 30.0143 27.6739C29.9363 27.8358 29.8028 27.9643 29.638 28.036L29.533 28.073C29.3593 28.1195 29.1747 28.1021 29.0129 28.0239C28.851 27.9457 28.7226 27.8119 28.651 27.647L28.614 27.542L27.597 23.745L23.794 21.548V25.939L26.574 28.719C26.7085 28.8527 26.7875 29.0323 26.7948 29.2218C26.8022 29.4113 26.7376 29.5966 26.6139 29.7403C26.4902 29.8841 26.3166 29.9756 26.1281 29.9965C25.9396 30.0174 25.7502 29.9661 25.598 29.853L25.514 29.78L23.794 28.06V30.75C23.7939 30.94 23.7218 31.1229 23.592 31.2618C23.4623 31.4006 23.2847 31.4851 23.0951 31.498C22.9055 31.511 22.7181 31.4515 22.5707 31.3316C22.4233 31.2117 22.3269 31.0402 22.301 30.852L22.294 30.75V28.062L20.574 29.78C20.447 29.907 20.2787 29.9842 20.0996 29.9976C19.9204 30.011 19.7425 29.9597 19.598 29.853L19.514 29.78C19.387 29.653 19.3098 29.4847 19.2964 29.3055C19.283 29.1264 19.3343 28.9485 19.441 28.804L19.514 28.72L22.294 25.94V21.549L18.493 23.744L17.475 27.542C17.4265 27.7254 17.3103 27.8837 17.1498 27.9848C16.9893 28.086 16.7964 28.1226 16.61 28.0872C16.4236 28.0518 16.2576 27.9471 16.1453 27.7942C16.033 27.6412 15.9829 27.4514 16.005 27.263L16.025 27.154L16.655 24.804L14.326 26.15C14.1612 26.2472 13.9655 26.2777 13.779 26.2354C13.5924 26.193 13.4291 26.081 13.3224 25.9222C13.2157 25.7634 13.1738 25.5698 13.2051 25.3811C13.2365 25.1924 13.3387 25.0228 13.491 24.907L13.576 24.85L15.904 23.506L13.556 22.876C13.3825 22.8295 13.2315 22.7222 13.1303 22.5738C13.0292 22.4253 12.9847 22.2455 13.005 22.067L13.025 21.957C13.0717 21.7835 13.1792 21.6325 13.3279 21.5316C13.4765 21.4307 13.6565 21.3864 13.835 21.407L13.945 21.427L17.742 22.445L21.544 20.25L17.743 18.055L13.944 19.073C13.7607 19.1233 13.5651 19.1021 13.3968 19.0137C13.2285 18.9253 13.1001 18.7763 13.0375 18.5968C12.9748 18.4173 12.9827 18.2207 13.0595 18.0468C13.1363 17.8729 13.2762 17.7347 13.451 17.66L13.556 17.624L15.906 16.994L13.576 15.65C13.4107 15.5552 13.2877 15.4011 13.2319 15.219C13.1761 15.0368 13.1917 14.8402 13.2756 14.6691C13.3595 14.4981 13.5053 14.3653 13.6835 14.2979C13.8617 14.2304 14.0589 14.2333 14.235 14.306L14.326 14.35L16.654 15.694L16.026 13.346C15.9794 13.1725 15.9967 12.988 16.0747 12.8261C16.1527 12.6642 16.2863 12.5357 16.451 12.464L16.556 12.427C16.7297 12.3805 16.9143 12.3979 17.0761 12.4761C17.238 12.5543 17.3665 12.6881 17.438 12.853L17.475 12.958L18.492 16.755L22.294 18.951V14.561L19.514 11.781C19.3781 11.6476 19.298 11.4674 19.2901 11.2771C19.2822 11.0868 19.3469 10.9006 19.4713 10.7563C19.5956 10.612 19.7701 10.5204 19.9595 10.5001C20.1489 10.4798 20.3389 10.5323 20.491 10.647L20.575 10.72L22.295 12.439V9.75C22.295 9.55109 22.374 9.36032 22.5147 9.21967C22.6553 9.07902 22.8461 9 23.045 9H23.044Z" fill="#6FAFF3"/>
</g>
<g clip-path="url(#clip1_61_3889)">
<path fill-rule="evenodd" clip-rule="evenodd" d="M22.627 74.255C24.6496 74.2547 26.5893 73.4511 28.0195 72.0208C29.4496 70.5904 30.253 68.6506 30.253 66.628C30.253 63.82 27.711 59.444 22.627 53.5C17.542 59.444 15 63.82 15 66.628C15 68.6508 15.8036 70.5908 17.2339 72.0211C18.6642 73.4514 20.6042 74.255 22.627 74.255V74.255Z" stroke="#5EC49E" stroke-width="1.5" stroke-linejoin="round"/>
<path d="M22.627 69.66C23.1277 69.66 23.6235 69.5614 24.0861 69.3698C24.5487 69.1782 24.9691 68.8973 25.3232 68.5432C25.6772 68.1892 25.9581 67.7688 26.1497 67.3062C26.3413 66.8436 26.44 66.3478 26.44 65.847" stroke="#5EC49E" stroke-width="1.5" stroke-linecap="round"/>
</g>
<g clip-path="url(#clip2_61_3889)">
<path d="M23 114C26.3137 114 29 111.314 29 108C29 104.686 26.3137 102 23 102C19.6863 102 17 104.686 17 108C17 111.314 19.6863 114 23 114Z" stroke="#FF9B5C" stroke-width="1.5"/>
<path d="M23 97V99M30.778 100.222L29.364 101.636M34 108H32M30.778 115.778L29.364 114.364M23 119V117M15.222 115.778L16.636 114.364M12 108H14M15.222 100.222L16.636 101.636" stroke="#FF9B5C" stroke-width="1.5" stroke-linecap="round"/>
</g>
<rect x="0.5" y="0.5" width="45" height="127" rx="4.5" stroke="#9747FF" stroke-dasharray="10 5"/>
<defs>
<clipPath id="clip0_61_3889">
<rect width="30" height="30" fill="white" transform="translate(8 5)"/>
</clipPath>
<clipPath id="clip1_61_3889">
<rect width="30" height="30" fill="white" transform="translate(8 49)"/>
</clipPath>
<clipPath id="clip2_61_3889">
<rect width="30" height="30" fill="white" transform="translate(8 93)"/>
</clipPath>
</defs>
</svg>
