<svg width="35" height="34" viewBox="0 0 35 34" fill="none" xmlns="http://www.w3.org/2000/svg">
<g clip-path="url(#clip0_1547_1135)">
<mask id="mask0_1547_1135" style="mask-type:alpha" maskUnits="userSpaceOnUse" x="0" y="0" width="35" height="34">
<path fill-rule="evenodd" clip-rule="evenodd" d="M17.3238 0.019043C7.94025 0.019043 0.333313 7.62599 0.333313 17.0097C0.333313 26.3931 7.94025 34 17.3238 34C26.7073 34 34.3141 26.3931 34.3141 17.0097C34.3141 7.62599 26.7073 0.019043 17.3238 0.019043Z" fill="white"/>
</mask>
<g mask="url(#mask0_1547_1135)">
<path fill-rule="evenodd" clip-rule="evenodd" d="M17.3238 0.019043C7.94025 0.019043 0.333313 7.62599 0.333313 17.0097C0.333313 26.3931 7.94025 34 17.3238 34C26.7073 34 34.3141 26.3931 34.3141 17.0097C34.3141 7.62599 26.7073 0.019043 17.3238 0.019043Z" fill="url(#paint0_radial_1547_1135)"/>
</g>
<path fill-rule="evenodd" clip-rule="evenodd" d="M14.5495 25.8262C14.3674 25.9468 14.1606 25.961 13.9272 25.9597C13.9713 25.7546 14.0076 25.5749 14.0509 25.3971C14.059 25.364 14.0667 25.313 14.1197 25.313C14.281 25.313 14.4238 25.315 14.5717 25.369C14.7246 25.4247 14.7162 25.7158 14.5495 25.8262ZM14.2314 26.8893C14.2711 27.0478 14.2913 27.2113 14.3152 27.3732C14.3298 27.4728 14.3812 27.5141 14.4809 27.5111C14.614 27.5072 14.7473 27.5113 14.8804 27.51C15.0616 27.5083 15.0883 27.4779 15.0438 27.2962C14.965 26.9751 14.9176 26.5814 14.7378 26.3337C14.7716 26.3165 14.8903 26.2722 14.9526 26.2388C15.2832 26.0617 15.4467 25.7436 15.3933 25.3836C15.3472 25.0739 15.1458 24.8623 14.7587 24.8142C14.3746 24.7665 13.9833 24.7725 13.595 24.7683C13.5716 24.7679 13.5231 24.7667 13.4958 24.7894C13.4658 24.814 13.4577 24.8637 13.4518 24.8903C13.2697 25.7098 13.0967 26.5312 12.9218 27.3521C12.8995 27.4566 12.9421 27.5095 13.0487 27.5099C13.1717 27.5103 13.295 27.5045 13.4175 27.5119C13.5408 27.5195 13.6037 27.4779 13.6267 27.3488C13.6707 27.102 13.7265 26.8572 13.787 26.6139C13.8002 26.5614 13.8126 26.4703 13.8463 26.4716C13.8463 26.4716 13.995 26.4584 14.0333 26.4635C14.0719 26.4686 14.168 26.636 14.2314 26.8893Z" fill="#C3C3C3"/>
<path fill-rule="evenodd" clip-rule="evenodd" d="M11.5716 26.1886C11.6345 25.9045 11.6944 25.633 11.756 25.3618C11.7601 25.3437 11.7779 25.3137 11.7879 25.3141C11.9284 25.3216 12.0784 25.307 12.2044 25.355C12.2668 25.3788 12.3178 25.5199 12.317 25.6074C12.314 25.9754 12.0051 26.222 11.5716 26.1886ZM12.4297 24.8178C12.2145 24.7762 11.7732 24.7565 11.7728 24.7608C11.6191 24.7608 11.4654 24.7614 11.3116 24.7606C11.2169 24.76 11.1581 24.7989 11.1377 24.8966C10.9651 25.7136 10.7915 26.53 10.617 27.3467C10.5924 27.4617 10.6396 27.511 10.7524 27.5105C10.8804 27.5097 11.0088 27.5067 11.1367 27.5118C11.2414 27.5159 11.2969 27.4766 11.3164 27.3697C11.3467 27.2035 11.3961 27.0405 11.4224 26.874C11.4317 26.8146 11.4414 26.768 11.4721 26.7431C11.5028 26.7182 11.5542 26.715 11.6124 26.7069C11.8594 26.6729 12.1127 26.6392 12.3459 26.5563C12.7927 26.3975 13.0205 26.0591 13.0329 25.5825C13.0439 25.1645 12.8411 24.8974 12.4297 24.8178Z" fill="#C3C3C3"/>
<path fill-rule="evenodd" clip-rule="evenodd" d="M18.4443 25.1837C18.6829 24.6816 18.5312 24.7725 19.1024 24.7622C19.138 24.7615 19.174 24.7609 19.2096 24.7633C19.3677 24.7738 19.4065 24.8329 19.3339 24.9692C18.9003 25.782 18.4661 26.5944 18.0257 27.4034C17.998 27.4539 17.9187 27.5003 17.86 27.5052C17.6973 27.519 17.5327 27.5085 17.3689 27.5106C17.2664 27.5117 17.2263 27.4628 17.2157 27.3627C17.1296 26.5588 17.0413 25.7552 16.9497 24.9519C16.9343 24.8171 16.985 24.7598 17.1166 24.7614C17.2495 24.7631 17.3828 24.7652 17.5158 24.7614C17.6556 24.7571 17.7016 24.824 17.7038 24.9585L17.7383 26.6903L18.4443 25.1837Z" fill="#C3C3C3"/>
<path fill-rule="evenodd" clip-rule="evenodd" d="M9.64761 26.2361C9.49302 26.2915 9.15112 26.3227 9.14301 26.3057C9.19735 26.1152 9.28759 25.9468 9.48778 25.8745C9.59184 25.8368 9.71529 25.8147 9.78043 25.9484C9.82842 26.0467 9.77042 26.1922 9.64761 26.2361ZM10.0399 25.4107C9.80633 25.3297 9.56706 25.3306 9.3289 25.3896C8.60966 25.5677 8.33512 26.2858 8.4082 26.8808C8.45173 27.2346 8.66622 27.4669 9.02179 27.5097C9.2663 27.539 9.52242 27.5303 9.76629 27.4922C10.1154 27.4375 10.1125 27.4194 10.1746 27.0713C10.2123 26.8608 10.1772 26.8386 9.97204 26.8892C9.76026 26.9415 9.54339 26.9771 9.32668 27.003C9.22102 27.0157 9.12331 26.9734 9.10584 26.8165C9.17082 26.8117 9.22627 26.8085 9.28156 26.8034C9.59327 26.7756 9.90595 26.7475 10.1784 26.5716C10.4175 26.4174 10.5119 26.1903 10.4787 25.9123C10.4471 25.6482 10.2795 25.4938 10.0399 25.4107Z" fill="#C3C3C3"/>
<path fill-rule="evenodd" clip-rule="evenodd" d="M24.118 27.3587C24.1019 27.5094 24.1688 27.5098 24.4367 27.5081C24.7158 27.5063 24.7698 27.5361 24.8026 27.4003L25.0002 26.4226L26.1338 24.9861C26.1662 24.9435 26.1977 24.8804 26.185 24.834C26.1667 24.767 26.0869 24.7728 26.0869 24.7728H25.5436C25.4513 24.7728 25.4422 24.8087 25.4422 24.8087C25.3154 24.9786 24.8086 25.7541 24.7673 25.8081C24.7449 25.7283 24.6057 25.1764 24.5628 24.9505C24.5439 24.8516 24.5039 24.7962 24.4314 24.7766C24.4033 24.769 23.9119 24.7738 23.8868 24.7781C23.7816 24.7956 23.7706 24.8513 23.8204 24.9951L24.3159 26.3918L24.118 27.3587Z" fill="#C3C3C3"/>
<path fill-rule="evenodd" clip-rule="evenodd" d="M23.2389 26.9945C23.2369 26.91 23.1883 26.8871 23.0742 26.9093C22.9237 26.9384 22.7749 26.9821 22.6231 26.9969C22.3432 27.0239 22.2386 26.9251 22.2315 26.6411C22.2224 26.2799 22.316 25.9408 22.4854 25.6248C22.6565 25.3055 22.9299 25.2003 23.2752 25.3066C23.5928 25.4043 23.5896 25.4036 23.6625 25.07C23.6862 24.9612 23.6565 24.9008 23.5557 24.8525C23.4428 24.7982 23.2958 24.7259 23.0122 24.7097C22.4655 24.7097 22.1708 24.9159 21.9126 25.3091C21.6427 25.7203 21.5224 26.1772 21.534 26.6634C21.5475 27.2412 21.8708 27.542 22.4515 27.5433C22.5535 27.5436 22.6559 27.5321 22.7571 27.5191C23.1047 27.4745 23.1509 27.4656 23.2054 27.205C23.2132 27.1678 23.2394 27.0137 23.2389 26.9945Z" fill="#C3C3C3"/>
<path fill-rule="evenodd" clip-rule="evenodd" d="M16.5833 24.7628C16.4656 24.7606 16.3475 24.7667 16.2301 24.7597C16.0911 24.7514 16.0331 24.8123 16.0051 24.9481C15.855 25.6797 15.6969 26.4098 15.54 27.1401C15.5274 27.1981 15.5169 27.2471 15.5094 27.2882C15.5056 27.3087 15.5026 27.3276 15.5007 27.3445C15.4985 27.3615 15.4974 27.3767 15.4974 27.3904C15.4964 27.5108 15.5773 27.5105 15.8386 27.5102C15.9052 27.5102 15.9718 27.5079 16.0382 27.5108C16.1292 27.5145 16.1794 27.4766 16.1991 27.3847C16.3731 26.569 16.5487 25.7538 16.7255 24.9387C16.752 24.8161 16.6991 24.7649 16.5833 24.7628Z" fill="#C3C3C3"/>
<path fill-rule="evenodd" clip-rule="evenodd" d="M19.9987 26.4365L20.4563 25.51L20.4985 26.4365H19.9987ZM21.2726 27.3055C21.2561 27.1323 21.2321 26.96 21.2111 26.7874C21.1366 26.1729 21.0594 25.5588 20.9891 24.9436C20.9737 24.8073 20.9092 24.7573 20.7788 24.7624C20.6509 24.7671 20.5225 24.7695 20.3949 24.7611C20.2553 24.752 20.1717 24.8038 20.1037 24.9311C19.6895 25.7077 19.2667 26.4797 18.8473 27.2536L18.7877 27.3513C18.7262 27.5076 18.8473 27.5095 18.8473 27.5095H19.3797C19.5001 27.5095 19.5156 27.4425 19.5156 27.4425L19.7489 26.9735H20.4741C20.5586 26.9735 20.5511 27.0041 20.5511 27.0041C20.5511 27.0041 20.5484 27.1811 20.5586 27.3502C20.5691 27.5194 20.6485 27.5095 20.6485 27.5095H21.0862C21.2737 27.5078 21.2902 27.4928 21.2726 27.3055Z" fill="#C3C3C3"/>
<path fill-rule="evenodd" clip-rule="evenodd" d="M20.0793 29.317C20.1254 29.3262 20.1746 29.3324 20.2482 29.3324C20.5159 29.3324 20.6913 29.1602 20.6913 28.9541C20.6913 28.7541 20.5466 28.6896 20.3745 28.6896C20.2914 28.6896 20.2329 28.6956 20.1959 28.7048L20.0793 29.317ZM19.8208 28.3912C19.953 28.3574 20.1621 28.3358 20.3621 28.3358C20.5466 28.3358 20.762 28.3666 20.9126 28.4741C21.051 28.5696 21.1371 28.714 21.1371 28.9141C21.1371 29.1754 21.0172 29.3724 20.8543 29.4984C20.6851 29.6308 20.4452 29.6891 20.1931 29.6891C20.1192 29.6891 20.0575 29.683 20.0115 29.6768L19.8701 30.4242H19.4363L19.8208 28.3912Z" fill="white"/>
<path fill-rule="evenodd" clip-rule="evenodd" d="M21.534 28.3512H21.9768L21.657 30.0367H22.4536L22.3798 30.4242H21.1402L21.534 28.3512Z" fill="white"/>
<path fill-rule="evenodd" clip-rule="evenodd" d="M23.4714 28.3512L23.2437 29.5447C23.2285 29.6154 23.2223 29.6983 23.2223 29.7908C23.2223 29.9566 23.3238 30.086 23.5237 30.086C23.7542 30.086 23.9082 29.9322 23.9821 29.5477L24.2096 28.3512H24.6525L24.428 29.5292C24.3081 30.1567 24.0311 30.4582 23.4682 30.4582C23.0409 30.4582 22.7793 30.2397 22.7793 29.7968C22.7793 29.7075 22.7917 29.606 22.8102 29.5076L23.0286 28.3512H23.4714Z" fill="white"/>
<path fill-rule="evenodd" clip-rule="evenodd" d="M24.7353 29.9445C24.8583 30.0183 25.0337 30.0766 25.2243 30.0766C25.3965 30.0766 25.5534 29.9967 25.5534 29.8337C25.5534 29.7168 25.4642 29.6399 25.2736 29.5415C25.0521 29.4216 24.843 29.2616 24.843 28.9909C24.843 28.5725 25.2089 28.3174 25.6611 28.3174C25.9132 28.3174 26.061 28.3727 26.1501 28.4219L26.0117 28.791C25.944 28.7541 25.7966 28.6957 25.6244 28.6987C25.4182 28.6987 25.3104 28.8032 25.3104 28.9171C25.3104 29.0371 25.4366 29.111 25.612 29.2093C25.864 29.3415 26.024 29.5109 26.024 29.7568C26.024 30.2182 25.6426 30.4551 25.1814 30.4551C24.8921 30.4551 24.686 30.3812 24.5877 30.3073L24.7353 29.9445Z" fill="white"/>
<path fill-rule="evenodd" clip-rule="evenodd" d="M30.1737 19.7126C29.9713 19.1027 29.5246 18.8412 28.8441 18.9351C28.8239 18.9379 28.8063 18.9408 28.794 18.9416C28.4896 18.9544 28.1828 19.1794 27.6511 19.668C27.0149 17.7282 26.2183 15.5201 25.6694 14.7739C24.8712 13.6887 23.9975 13.1295 23.2354 12.8481C24.5614 12.1246 25.4609 10.7179 25.4609 9.10097C25.4609 6.74496 23.5509 4.83508 21.1949 4.83508C18.839 4.83508 16.9291 6.74496 16.9291 9.10097C16.9291 10.736 17.8494 12.1556 19.1997 12.8716C18.4618 13.1601 17.5925 13.7177 16.7207 14.7739C16.0601 15.5741 15.1915 18.2506 14.5844 20.3341C14.2899 20.2974 13.9991 20.252 13.7127 20.1988C14.475 17.8734 15.2477 15.6442 15.6095 14.9896C16.4489 13.4709 17.584 12.7434 17.584 12.7434C14.6834 9.4513 16.831 6.44516 17.2548 5.91514C16.9935 5.86096 16.7226 5.83236 16.445 5.83236C14.2481 5.83236 12.4672 7.61339 12.4672 9.8102C12.4672 11.3348 13.3253 12.6584 14.5844 13.3262C13.8965 13.5952 13.0859 14.1152 12.2729 15.0999C11.757 15.7246 11.1058 17.5755 10.5751 19.3016C10.299 19.1956 10.0337 19.0866 9.77867 18.9764C10.2002 17.7324 10.6029 16.5938 10.8692 15.9569C11.6846 14.0065 12.9955 13.2871 12.9955 13.2871C12.9955 13.2871 10.0826 10.4506 12.5959 6.82122C12.2945 6.74464 11.9788 6.70365 11.6537 6.70365C9.54639 6.70365 7.83813 8.41191 7.83813 10.5191C7.83813 11.9816 8.66128 13.2512 9.86908 13.8916C9.20909 14.1496 8.50415 14.6484 7.72437 15.5931C7.45412 15.9203 7.13986 16.5989 6.82449 17.4168C6.55392 17.2436 6.40266 17.1353 6.39472 17.1296C6.19501 16.9845 5.91507 17.0285 5.76953 17.2285C5.62416 17.4284 5.66833 17.7084 5.8682 17.8537C6.05202 17.9877 10.4331 21.1338 15.7514 21.3286C20.8793 21.516 23.3736 19.9752 24.572 19.2347L24.7398 19.1316C24.8171 19.0842 25.079 18.9376 25.1948 19.035C25.3143 19.1359 25.3956 19.488 25.2374 19.8871C24.9999 20.4857 24.2654 21.2061 23.7212 21.5302C23.3777 21.735 23.1287 22.1972 23.3256 22.587C23.7009 23.3306 24.9832 22.7925 25.4047 22.6155C26.1811 22.2895 27.0441 21.4716 27.8057 20.7501C28.1793 20.3959 28.6877 19.9142 28.8684 19.8337C28.8973 19.8311 28.9305 19.827 28.9669 19.8219C29.2144 19.7876 29.2581 19.7967 29.3237 19.9945C29.4259 20.3019 30.2085 23.0878 26.3417 26.2184C26.1495 26.3741 26.1198 26.6559 26.2753 26.848C26.364 26.9573 26.4932 27.014 26.6236 27.014C26.7224 27.014 26.8222 26.9815 26.905 26.9143C30.1969 24.2492 30.7231 21.3692 30.1737 19.7126Z" fill="white"/>
</g>
<defs>
<radialGradient id="paint0_radial_1547_1135" cx="0" cy="0" r="1" gradientUnits="userSpaceOnUse" gradientTransform="translate(11.4439 4.21135) scale(31.0439 31.044)">
<stop stop-color="#BCBCBA"/>
<stop offset="1" stop-color="#676766"/>
</radialGradient>
<clipPath id="clip0_1547_1135">
<rect width="34" height="34" fill="white" transform="translate(0.333313)"/>
</clipPath>
</defs>
</svg>
