<svg width="36" height="36" viewBox="0 0 36 36" fill="none" xmlns="http://www.w3.org/2000/svg">
<g clip-path="url(#clip0_42_122)">
<path d="M26.0811 26.081L21.9611 21.961M16.4671 23.334C17.3689 23.334 18.2618 23.1564 19.095 22.8113C19.9281 22.4662 20.6851 21.9603 21.3228 21.3227C21.9605 20.685 22.4663 19.928 22.8114 19.0949C23.1565 18.2617 23.3341 17.3688 23.3341 16.467C23.3341 15.5652 23.1565 14.6722 22.8114 13.8391C22.4663 13.0059 21.9605 12.2489 21.3228 11.6113C20.6851 10.9736 19.9281 10.4678 19.095 10.1227C18.2618 9.77759 17.3689 9.59998 16.4671 9.59998C14.6459 9.59998 12.8992 10.3235 11.6114 11.6113C10.3236 12.8991 9.6001 14.6457 9.6001 16.467C9.6001 18.2882 10.3236 20.0349 11.6114 21.3227C12.8992 22.6105 14.6459 23.334 16.4671 23.334V23.334Z" stroke="#5F0080" stroke-width="1.7" stroke-linecap="round"/>
</g>
<defs>
<clipPath id="clip0_42_122">
<rect width="36" height="36" fill="white"/>
</clipPath>
</defs>
</svg>
