<svg width="72" height="136" viewBox="0 0 72 136" fill="none" xmlns="http://www.w3.org/2000/svg">
<path fill-rule="evenodd" clip-rule="evenodd" d="M46.9269 26.8929C46.3269 26.2926 45.6146 25.8164 44.8305 25.4914C44.0465 25.1665 43.2061 24.9993 42.3574 24.9993C41.5086 24.9993 40.6682 25.1665 39.8842 25.4914C39.1001 25.8164 38.3878 26.2926 37.7879 26.8929L35.9589 28.7209L34.1319 26.8929C32.9201 25.6809 31.2765 24.9999 29.5626 24.9997C27.8487 24.9995 26.2049 25.6802 24.9929 26.8919C23.7808 28.1037 23.0998 29.7473 23.0996 31.4612C23.0994 33.1751 23.7801 34.8189 24.9919 36.0309L26.8199 37.8599L35.2519 46.2939C35.4394 46.4814 35.6937 46.5867 35.9589 46.5867C36.224 46.5867 36.4783 46.4814 36.6659 46.2939L45.0989 37.8599L46.9269 36.0319C47.5271 35.432 48.0032 34.7198 48.328 33.9358C48.6528 33.1518 48.82 32.3115 48.82 31.4629C48.82 30.6144 48.6528 29.7741 48.328 28.9901C48.0032 28.2061 47.5271 27.4939 46.9269 26.8939V26.8929Z" stroke="#E1E1E1" stroke-width="1.7" stroke-linecap="round"/>
<rect x="8.5" y="8.5" width="55" height="55" rx="3.5" stroke="#E1E1E1"/>
<path fill-rule="evenodd" clip-rule="evenodd" d="M46.9269 90.8929C46.3269 90.2926 45.6146 89.8164 44.8305 89.4914C44.0465 89.1665 43.2061 88.9993 42.3574 88.9993C41.5086 88.9993 40.6682 89.1665 39.8842 89.4914C39.1001 89.8164 38.3878 90.2926 37.7879 90.8929L35.9589 92.7209L34.1319 90.8929C32.9201 89.6809 31.2765 88.9999 29.5626 88.9997C27.8487 88.9995 26.2049 89.6802 24.9929 90.8919C23.7808 92.1037 23.0998 93.7473 23.0996 95.4612C23.0994 97.1751 23.7801 98.8189 24.9919 100.031L26.8199 101.86L35.2519 110.294C35.4394 110.481 35.6937 110.587 35.9589 110.587C36.224 110.587 36.4783 110.481 36.6659 110.294L45.0989 101.86L46.9269 100.032C47.5271 99.432 48.0032 98.7198 48.328 97.9358C48.6528 97.1518 48.82 96.3115 48.82 95.4629C48.82 94.6144 48.6528 93.7741 48.328 92.9901C48.0032 92.2061 47.5271 91.4939 46.9269 90.8939V90.8929Z" stroke="#5F0080" stroke-width="1.7" stroke-linecap="round"/>
<rect x="8.5" y="72.5" width="55" height="55" rx="3.5" stroke="#E1E1E1"/>
<rect x="0.5" y="0.5" width="71" height="135" rx="4.5" stroke="#9747FF" stroke-dasharray="10 5"/>
</svg>
