<svg width="103" height="17" viewBox="0 0 103 17" fill="none" xmlns="http://www.w3.org/2000/svg">
<g opacity="0.5">
<path d="M21.405 11.7603V16.7032H19.004V3.45271H21.3879V4.76721C22.0184 3.83821 23.0879 3.26001 24.3671 3.26001C26.751 3.26001 28.9234 5.17031 28.9234 8.18701C28.9234 11.2037 26.7152 13.1123 24.3842 13.1123C23.1055 13.11 22.0361 12.637 21.405 11.7603ZM26.5054 8.16771C26.5054 6.67751 25.349 5.50351 23.8941 5.50351C22.4045 5.50351 21.2651 6.69741 21.2651 8.16771C21.2651 9.63791 22.4022 10.8313 23.8941 10.8313C25.349 10.8313 26.5054 9.65731 26.5054 8.16771Z" fill="black"/>
<path d="M50.8692 3.45271H53.2856V4.57451C53.8638 3.75231 54.7751 3.26001 55.9145 3.26001C57.3359 3.26001 58.2984 3.83821 58.8067 4.85471C59.4025 3.87341 60.4714 3.26281 61.7683 3.26281C64.1698 3.26281 65.3791 4.73481 65.3791 7.10111V12.9173H62.89V7.44791C62.89 6.16811 62.3641 5.37951 61.1377 5.37951C60.0507 5.37951 59.332 6.11861 59.332 7.60541V12.9173H56.8611V7.37851C56.8611 6.11691 56.3352 5.38071 55.1606 5.38071C54.0235 5.38071 53.3032 6.13451 53.3032 7.65941V12.9173H50.8692V3.45271Z" fill="black"/>
<path d="M71.5131 3.276C69.4942 3.276 67.8255 4.3977 67.0392 6.0437C66.7166 6.7231 66.5505 7.4662 66.5531 8.2184C66.5531 10.9701 68.5157 13.1261 71.5654 13.1261C73.561 13.1261 74.863 12.3386 75.8039 11.1043L73.8259 9.9621C73.3489 10.6262 72.632 11.0423 71.6007 11.0423C70.1986 11.0423 69.1991 10.2708 68.8841 9.0439H76.3401C76.381 8.7712 76.4017 8.4958 76.402 8.2201V8.1302C76.4032 5.3267 74.3501 3.276 71.5131 3.276ZM68.9546 7.1495C69.3401 6.0454 70.2867 5.3267 71.5131 5.3267C72.7747 5.3267 73.6861 5.9754 74.0016 7.1495H68.9546Z" fill="black"/>
<path d="M77.6102 3.45283H80.0288V4.64683C80.6423 3.78833 81.6207 3.26233 82.7982 3.26233C85.0417 3.26233 86.4613 4.73433 86.4613 7.20583V12.9174H83.9899V7.57313C83.9899 6.22393 83.3411 5.38253 82.0619 5.38253C80.9248 5.38253 80.0464 6.22393 80.0464 7.69593V12.9174H77.6102V3.45283Z" fill="black"/>
<path d="M87.1043 3.45277H88.8566V1.40203L91.2405 0V3.45277H93.729V5.59107H91.2405V9.48217C91.2405 10.4812 91.6612 10.8314 92.2747 10.8314C92.6073 10.8314 92.8705 10.7262 93.1508 10.4812L94.2549 12.3739C93.6415 12.8287 92.8705 13.0925 91.9938 13.0925C90.0136 13.0925 88.8566 12.1459 88.8566 9.56747V5.58767H87.1043V3.45277Z" fill="black"/>
<path d="M37.2174 4.66201C36.5692 3.78591 35.535 3.26001 34.2905 3.26001C31.8719 3.26001 29.6983 5.17031 29.6983 8.18471C29.6983 11.1992 31.9242 13.11 34.2558 13.11C35.4827 13.11 36.5516 12.5489 37.2174 11.6204V12.9173H39.6013V3.45561H37.2174V4.66201ZM34.7288 10.8313C33.2739 10.8313 32.0999 9.65731 32.0999 8.16771C32.0999 6.67811 33.2739 5.50351 34.7288 5.50351C36.2184 5.50351 37.3578 6.69741 37.3578 8.16771C37.3578 9.63791 36.2184 10.8313 34.7288 10.8313Z" fill="black"/>
<path d="M47.6695 3.45276L45.3385 9.55216L42.8846 3.45276H40.308L44.1115 12.5143L44.161 12.6326L42.6265 16.6476L42.6185 16.6681H45.1423L50.1933 3.45276H47.6695Z" fill="black"/>
<path d="M96.5127 9.85581C96.9357 10.6955 97.6909 11.1316 98.6898 11.1293C99.6717 11.1265 100.196 10.6523 100.195 10.0912C100.195 9.40891 99.1758 9.25251 97.9654 9.01091C96.3695 8.68231 94.5974 8.19621 94.5917 6.19781C94.5877 4.60581 96.1267 3.21401 98.4577 3.22541C100.311 3.22031 101.471 3.86501 102.333 4.96291L100.324 6.13011C99.9365 5.50011 99.3396 5.13341 98.4629 5.13571C97.5163 5.13851 97.0614 5.52521 97.0631 6.05111C97.0631 6.64691 97.8363 6.80271 99.2236 7.09721C100.802 7.40821 102.663 7.94661 102.668 9.97971C102.672 11.4523 101.36 13.1209 98.6085 13.1107C96.5333 13.1164 95.1614 12.4006 94.3671 11.1032L94.3636 11.0975L96.5127 9.85581Z" fill="black"/>
<path d="M15.2214 7.60258C15.0417 6.06438 14.3076 4.64428 13.1564 3.60828C12.0053 2.57218 10.516 1.9912 8.9674 1.974H8.8969C8.64992 1.97411 8.40315 1.98834 8.15779 2.01668C7.28987 2.11658 6.45195 2.39468 5.69656 2.83368C5.68007 2.84328 5.66472 2.85298 5.64823 2.86208L5.60616 2.88708C1.96519 5.05548 0.666626 10.0633 0.666626 13.1101L3.59862 11.4176C4.63224 13.3864 6.61476 14.6839 8.82527 14.7077H8.89577C9.14276 14.7074 9.38953 14.693 9.63488 14.6645C11.3121 14.4687 12.8428 13.6148 13.8905 12.2904C14.9381 10.9661 15.4169 9.27988 15.2214 7.60258Z" fill="black"/>
</g>
</svg>
